<?xml version="1.0" encoding="UTF-8" ?>
<!DOCTYPE svg PUBLIC "-//W3C//DTD SVG 1.1//EN" "http://www.w3.org/Graphics/SVG/1.1/DTD/svg11.dtd">
<svg width="700pt" height="656pt" viewBox="0 0 700 656" version="1.1" xmlns="http://www.w3.org/2000/svg">
<g id="#0d100dff">
<path fill="#0d100d" opacity="1.00" d=" M 247.52 12.32 C 248.55 6.74 256.80 6.40 260.25 9.73 C 267.01 17.89 269.60 28.64 276.02 37.03 C 279.09 38.45 282.70 36.99 285.98 37.17 C 307.68 36.74 329.15 40.29 350.66 42.69 C 356.52 34.34 366.66 26.53 377.41 29.58 C 388.55 32.90 400.64 34.77 410.20 41.82 C 414.13 44.38 414.00 49.41 414.57 53.53 C 431.72 59.09 449.42 62.89 466.61 68.39 C 480.37 73.66 491.58 56.06 505.31 60.72 C 510.52 66.91 504.86 74.63 499.93 78.98 C 518.43 85.78 536.77 93.05 555.35 99.58 C 565.17 101.09 575.18 95.21 585.06 97.93 C 590.66 101.30 588.32 109.74 584.15 113.46 C 595.89 120.70 607.38 128.41 618.66 136.35 C 629.68 147.32 641.57 157.67 650.39 170.61 C 656.44 179.71 663.01 188.56 667.30 198.68 C 673.35 213.06 681.55 226.70 684.96 242.05 C 690.30 267.34 695.74 293.04 694.99 319.02 C 693.03 329.25 694.55 339.71 692.78 349.95 C 690.68 365.61 688.99 381.32 686.79 396.96 C 683.77 409.93 678.63 422.30 675.07 435.13 C 669.41 455.07 659.18 473.24 651.33 492.33 C 647.53 502.38 640.06 510.25 633.55 518.56 C 622.50 532.49 611.10 546.14 600.12 560.13 C 593.27 569.62 584.21 577.22 574.18 583.16 C 557.72 593.00 542.10 604.25 524.99 612.98 C 507.05 621.54 487.55 625.86 468.60 631.54 C 444.09 639.47 418.38 642.49 392.99 646.16 C 366.27 650.80 338.97 652.45 311.99 649.78 C 307.34 649.67 302.68 650.58 298.05 649.82 C 278.68 645.83 258.89 643.73 239.86 638.11 C 214.04 631.36 189.69 620.11 166.00 607.99 C 159.51 605.04 152.98 602.06 147.25 597.77 C 130.10 584.58 113.02 571.28 95.90 558.05 C 85.57 547.05 75.74 535.56 65.57 524.39 C 51.57 508.75 41.22 490.24 32.99 471.01 C 25.46 456.20 18.01 441.13 14.37 424.81 C 10.30 406.38 8.08 387.59 5.18 368.95 C 3.45 359.72 4.43 350.32 4.23 341.00 C 2.63 311.30 7.69 281.76 12.66 252.59 C 16.53 237.66 21.45 223.00 26.38 208.38 C 37.22 177.65 55.62 150.23 76.28 125.27 C 85.42 116.76 94.09 107.70 103.76 99.76 C 119.30 86.55 137.17 76.58 154.83 66.54 C 154.70 60.02 153.47 53.50 154.04 46.99 C 154.45 41.74 161.75 42.07 165.27 43.79 C 169.70 47.68 170.56 53.98 173.11 59.06 C 196.30 49.55 220.89 44.33 245.60 40.61 C 246.91 31.22 245.37 21.61 247.52 12.32 M 259.14 32.11 C 260.10 33.50 261.06 34.90 262.06 36.27 C 260.32 35.74 258.46 35.46 256.75 36.26 C 257.86 39.16 258.54 42.19 258.84 45.28 C 257.39 45.39 255.94 45.49 254.50 45.62 C 252.60 47.86 250.19 49.62 247.23 50.08 C 247.27 51.04 247.31 52.00 247.36 52.96 C 241.81 52.66 236.17 52.81 230.96 54.95 C 228.37 56.29 225.79 55.00 223.67 53.47 C 223.55 53.52 223.30 53.62 223.17 53.67 C 222.78 57.97 218.69 57.49 215.44 57.40 C 212.98 59.30 210.00 60.20 206.98 59.14 C 208.11 58.25 209.23 57.35 210.35 56.43 C 208.07 56.58 205.80 56.74 203.53 56.84 C 204.33 58.30 205.92 59.65 205.51 61.48 C 202.84 61.60 200.21 61.14 197.60 60.66 C 197.97 61.88 198.34 63.10 198.70 64.33 C 196.34 63.81 194.21 62.69 192.46 61.05 C 192.02 61.25 191.14 61.65 190.70 61.86 C 191.37 63.06 192.04 64.27 192.72 65.48 C 189.21 66.53 185.67 67.44 182.09 68.19 C 183.49 66.56 185.00 65.01 186.40 63.37 C 181.13 64.79 175.74 66.24 171.19 69.38 C 169.52 68.18 167.87 66.95 166.20 65.77 C 165.22 69.92 161.49 76.10 167.36 78.11 C 167.56 78.38 167.98 78.94 168.18 79.21 C 166.83 79.25 165.48 79.27 164.14 79.29 C 165.10 85.83 167.82 91.92 168.94 98.42 C 163.40 91.24 162.47 81.76 161.83 73.00 C 157.45 74.03 153.73 76.60 150.67 79.83 C 151.66 80.39 152.64 80.94 153.63 81.50 C 150.61 82.76 147.50 84.30 145.94 87.37 C 113.13 106.11 84.67 132.43 64.08 164.15 C 40.13 200.76 26.09 243.44 20.61 286.64 C 8.85 357.43 21.16 433.09 59.78 494.16 C 111.52 575.80 204.18 627.24 299.49 636.40 C 314.51 638.65 329.84 637.11 344.99 637.51 C 354.12 638.17 362.88 634.66 372.02 635.40 C 438.95 628.09 508.82 615.06 564.34 574.39 C 592.92 553.73 616.06 526.15 633.87 495.85 C 655.32 459.97 669.70 420.07 677.10 378.97 C 679.64 359.96 683.43 340.87 682.30 321.58 C 683.00 312.56 682.80 303.38 681.29 294.44 C 678.97 263.62 670.69 233.04 656.40 205.56 C 641.49 176.46 618.68 151.73 591.84 133.23 C 590.94 131.52 590.29 129.70 589.39 128.00 C 581.77 127.73 578.72 120.26 573.94 115.66 C 573.26 112.64 573.93 109.50 574.07 106.45 C 569.43 107.72 562.36 106.53 561.07 112.58 C 560.12 112.70 559.19 112.83 558.25 112.95 C 558.74 111.86 559.23 110.77 559.73 109.68 C 559.59 109.46 559.32 109.02 559.18 108.80 C 554.03 110.02 548.75 108.44 544.48 105.50 C 540.44 102.65 535.29 102.93 530.73 101.55 C 522.49 99.13 514.37 96.32 506.02 94.34 C 507.77 93.60 509.51 92.85 511.25 92.07 C 508.03 90.28 504.76 92.47 501.47 92.41 C 496.25 90.65 491.06 88.75 485.55 88.10 C 489.44 85.07 493.95 87.68 497.91 89.12 C 494.92 86.61 491.81 84.17 489.37 81.11 C 486.86 78.37 490.69 75.32 491.76 72.78 C 490.00 72.99 488.24 73.19 486.49 73.40 C 486.46 74.94 486.44 76.47 486.42 78.01 C 485.47 76.85 484.51 75.68 483.56 74.53 C 481.03 76.06 478.73 78.00 476.08 79.33 C 471.03 80.17 466.25 77.77 461.76 75.77 C 461.93 77.69 462.14 79.60 462.31 81.51 C 458.57 77.84 453.62 76.02 448.47 75.56 C 448.85 74.82 449.23 74.08 449.62 73.35 C 446.65 73.65 443.66 73.79 440.68 73.76 C 441.71 72.80 442.76 71.85 443.82 70.91 C 440.08 71.48 436.30 71.82 432.53 72.01 C 432.54 70.68 432.55 69.34 432.57 68.01 C 427.66 64.36 422.08 69.02 416.88 67.01 C 413.80 66.02 410.57 65.72 407.35 65.91 C 406.87 67.89 406.39 69.87 405.96 71.86 C 405.08 69.29 403.62 67.00 401.53 65.27 C 401.42 64.77 401.19 63.76 401.08 63.26 C 403.83 64.10 406.75 64.65 409.56 63.66 C 407.38 61.51 405.02 59.56 402.47 57.89 C 402.33 57.03 402.19 56.18 402.07 55.33 C 403.19 55.73 404.32 56.13 405.45 56.55 C 404.94 54.06 405.39 50.63 402.58 49.44 C 396.32 46.13 389.57 43.83 382.78 41.89 C 383.96 41.65 385.15 41.39 386.35 41.12 C 381.08 39.39 375.50 40.80 370.11 40.07 C 366.24 46.14 357.61 46.48 354.81 53.33 C 350.81 49.47 346.09 54.29 341.43 53.38 C 341.91 52.45 342.40 51.51 342.89 50.57 C 336.14 51.69 329.29 50.79 322.50 50.96 C 322.85 50.28 323.19 49.60 323.55 48.92 C 309.29 48.62 295.03 49.38 280.78 48.88 C 280.66 47.88 280.55 46.88 280.44 45.89 C 278.68 46.32 276.94 46.77 275.20 47.23 C 271.51 44.86 268.35 41.83 265.46 38.55 C 264.51 39.64 263.58 40.74 262.66 41.85 C 263.39 39.45 264.21 37.07 265.00 34.69 C 263.71 33.35 262.43 32.02 261.14 30.70 C 260.64 31.05 259.64 31.76 259.14 32.11 Z" />
</g>
<g id="#0c1c0cff">
<path fill="#0c1c0c" opacity="1.00" d=" M 259.14 32.11 C 259.64 31.76 260.64 31.05 261.14 30.70 C 262.43 32.02 263.71 33.35 265.00 34.69 C 264.21 37.07 263.39 39.45 262.66 41.85 C 263.58 40.74 264.51 39.64 265.46 38.55 C 268.35 41.83 271.51 44.86 275.20 47.23 C 276.94 46.77 278.68 46.32 280.44 45.89 C 280.55 46.88 280.66 47.88 280.78 48.88 C 295.03 49.38 309.29 48.62 323.55 48.92 C 323.19 49.60 322.85 50.28 322.50 50.96 C 329.29 50.79 336.14 51.69 342.89 50.57 C 342.40 51.51 341.91 52.45 341.43 53.38 C 346.09 54.29 350.81 49.47 354.81 53.33 C 357.61 46.48 366.24 46.14 370.11 40.07 C 375.50 40.80 381.08 39.39 386.35 41.12 C 385.15 41.39 383.96 41.65 382.78 41.89 C 389.57 43.83 396.32 46.13 402.58 49.44 C 405.39 50.63 404.94 54.06 405.45 56.55 C 404.32 56.13 403.19 55.73 402.07 55.33 C 402.19 56.18 402.33 57.03 402.47 57.89 C 405.02 59.56 407.38 61.51 409.56 63.66 C 406.75 64.65 403.83 64.10 401.08 63.26 C 401.19 63.76 401.42 64.77 401.53 65.27 C 403.62 67.00 405.08 69.29 405.96 71.86 C 406.39 69.87 406.87 67.89 407.35 65.91 C 410.57 65.72 413.80 66.02 416.88 67.01 C 422.08 69.02 427.66 64.36 432.57 68.01 C 432.55 69.34 432.54 70.68 432.53 72.01 C 436.30 71.82 440.08 71.48 443.82 70.91 C 442.76 71.85 441.71 72.80 440.68 73.76 C 443.66 73.79 446.65 73.65 449.62 73.35 C 449.23 74.08 448.85 74.82 448.47 75.56 C 453.62 76.02 458.57 77.84 462.31 81.51 C 462.14 79.60 461.93 77.69 461.76 75.77 C 466.25 77.77 471.03 80.17 476.08 79.33 C 478.73 78.00 481.03 76.06 483.56 74.53 C 484.51 75.68 485.47 76.85 486.42 78.01 C 486.44 76.47 486.46 74.94 486.49 73.40 C 488.24 73.19 490.00 72.99 491.76 72.78 C 490.69 75.32 486.86 78.37 489.37 81.11 C 491.81 84.17 494.92 86.61 497.91 89.12 C 493.95 87.68 489.44 85.07 485.55 88.10 C 491.06 88.75 496.25 90.65 501.47 92.41 C 504.76 92.47 508.03 90.28 511.25 92.07 C 509.51 92.85 507.77 93.60 506.02 94.34 C 514.37 96.32 522.49 99.13 530.73 101.55 C 535.29 102.93 540.44 102.65 544.48 105.50 C 548.75 108.44 554.03 110.02 559.18 108.80 C 559.32 109.02 559.59 109.46 559.73 109.68 C 559.23 110.77 558.74 111.86 558.25 112.95 C 559.19 112.83 560.12 112.70 561.07 112.58 C 562.36 106.53 569.43 107.72 574.07 106.45 C 573.93 109.50 573.26 112.64 573.94 115.66 C 578.72 120.26 581.77 127.73 589.39 128.00 C 590.29 129.70 590.94 131.52 591.84 133.23 C 584.67 128.62 577.49 123.97 569.90 120.06 C 564.20 116.90 558.20 120.98 552.76 122.74 C 525.69 132.36 497.46 138.42 469.02 142.24 C 453.77 144.50 437.47 145.36 424.17 154.01 C 433.18 161.51 447.41 160.66 454.14 170.98 C 452.29 172.83 450.67 175.07 448.25 176.21 C 409.52 185.27 370.69 171.95 332.00 169.64 C 314.36 169.99 294.73 173.56 282.65 187.62 C 279.31 192.53 275.08 198.78 268.20 195.83 C 266.93 181.51 275.54 168.60 282.21 156.56 C 242.72 158.05 200.89 143.92 175.49 112.54 C 167.70 103.35 163.60 91.92 159.71 80.72 C 154.94 82.54 150.37 84.84 145.94 87.37 C 147.50 84.30 150.61 82.76 153.63 81.50 C 152.64 80.94 151.66 80.39 150.67 79.83 C 153.73 76.60 157.45 74.03 161.83 73.00 C 162.47 81.76 163.40 91.24 168.94 98.42 C 167.82 91.92 165.10 85.83 164.14 79.29 C 165.48 79.27 166.83 79.25 168.18 79.21 C 167.98 78.94 167.56 78.38 167.36 78.11 C 161.49 76.10 165.22 69.92 166.20 65.77 C 167.87 66.95 169.52 68.18 171.19 69.38 C 175.74 66.24 181.13 64.79 186.40 63.37 C 185.00 65.01 183.49 66.56 182.09 68.19 C 185.67 67.44 189.21 66.53 192.72 65.48 C 192.04 64.27 191.37 63.06 190.70 61.86 C 191.14 61.65 192.02 61.25 192.46 61.05 C 194.21 62.69 196.34 63.81 198.70 64.33 C 198.34 63.10 197.97 61.88 197.60 60.66 C 200.21 61.14 202.84 61.60 205.51 61.48 C 205.92 59.65 204.33 58.30 203.53 56.84 C 205.80 56.74 208.07 56.58 210.35 56.43 C 209.23 57.35 208.11 58.25 206.98 59.14 C 210.00 60.20 212.98 59.30 215.44 57.40 C 218.69 57.49 222.78 57.97 223.17 53.67 C 223.30 53.62 223.55 53.52 223.67 53.47 C 225.79 55.00 228.37 56.29 230.96 54.95 C 236.17 52.81 241.81 52.66 247.36 52.96 C 247.31 52.00 247.27 51.04 247.23 50.08 C 250.19 49.62 252.60 47.86 254.50 45.62 C 255.94 45.49 257.39 45.39 258.84 45.28 C 258.54 42.19 257.86 39.16 256.75 36.26 C 258.46 35.46 260.32 35.74 262.06 36.27 C 261.06 34.90 260.10 33.50 259.14 32.11 M 370.65 43.60 C 361.05 49.61 353.70 58.87 349.03 69.11 C 341.71 86.06 337.20 104.36 336.44 122.82 C 336.11 125.95 333.00 128.25 330.03 128.58 C 326.66 128.09 325.22 124.64 323.80 122.00 C 322.60 113.76 317.82 106.61 312.89 100.11 C 299.94 84.78 283.34 72.83 271.42 56.57 C 267.96 52.32 265.49 47.36 261.81 43.28 C 261.35 48.42 263.13 53.31 264.87 58.05 C 272.46 78.27 282.48 97.49 292.32 116.68 C 295.61 122.74 297.24 133.34 289.19 136.24 C 280.79 136.98 272.41 134.57 264.01 134.07 C 239.64 132.45 217.55 120.53 197.51 107.41 C 189.53 102.48 183.09 95.58 175.72 89.88 C 177.33 95.72 180.84 100.74 184.49 105.48 C 210.66 137.64 255.67 150.18 295.65 142.67 C 299.89 141.11 303.30 146.68 302.22 150.29 C 298.46 156.17 292.16 160.25 289.74 167.06 C 298.23 164.30 306.39 160.31 315.41 159.45 C 351.39 154.53 386.39 169.42 422.39 167.61 C 418.53 163.36 412.23 162.75 408.35 158.63 C 405.29 152.93 411.74 148.66 415.71 145.77 C 432.22 134.03 453.04 133.04 472.38 130.27 C 486.80 127.51 501.69 126.46 515.54 121.37 C 507.95 119.83 500.57 123.02 493.00 123.05 C 474.00 125.19 454.96 126.66 436.02 129.21 C 431.87 129.18 426.04 130.68 423.43 126.47 C 420.81 122.77 425.06 118.85 428.15 117.19 C 443.85 108.95 459.24 99.59 472.35 87.58 C 469.32 88.18 466.33 89.05 463.58 90.48 C 444.56 100.00 424.78 108.06 405.96 117.94 C 402.15 119.41 398.43 121.12 394.79 122.97 C 387.67 119.24 389.25 110.27 389.66 103.64 C 390.80 85.70 395.37 68.09 402.50 51.62 C 396.12 47.43 388.78 44.96 381.41 43.15 C 377.90 42.44 373.87 41.41 370.65 43.60 M 281.86 50.54 C 282.93 52.58 284.07 54.62 285.65 56.33 C 299.61 71.14 315.51 84.13 327.96 100.31 C 330.09 84.34 335.86 68.89 343.74 54.88 C 332.74 51.67 321.23 52.86 310.06 50.72 C 300.68 50.13 291.25 50.27 281.86 50.54 M 178.03 72.01 C 180.51 78.01 185.28 82.69 189.87 87.14 C 203.51 98.85 219.15 108.16 235.54 115.48 C 250.48 122.44 267.11 122.47 283.08 124.82 C 272.73 102.47 260.56 80.78 252.65 57.34 C 251.97 53.07 247.05 54.37 243.95 54.36 C 221.34 57.40 199.24 63.66 178.03 72.01 M 408.45 67.02 C 405.07 80.02 400.54 93.24 401.67 106.85 C 420.50 97.73 439.87 89.70 458.47 80.13 C 442.01 75.03 425.33 70.47 408.45 67.02 M 483.55 93.57 C 475.04 101.19 465.51 107.50 456.49 114.45 C 462.47 114.90 468.50 114.68 474.37 113.37 C 495.35 111.29 516.51 109.82 537.22 105.60 C 522.08 100.30 506.44 96.52 491.54 90.47 C 488.32 88.49 485.81 91.72 483.55 93.57 Z" />
<path fill="#0c1c0c" opacity="1.00" d=" M 91.35 339.22 C 92.43 334.46 99.73 334.21 101.15 338.88 C 102.59 345.84 100.01 352.81 99.60 359.76 C 98.95 381.55 98.80 403.62 104.24 424.90 C 112.37 463.86 134.19 500.97 167.43 523.58 C 170.15 525.18 171.50 528.81 169.57 531.55 C 167.16 534.93 162.18 533.92 159.29 531.74 C 136.78 515.65 119.43 493.32 107.05 468.72 C 94.72 441.24 87.85 411.15 88.48 380.98 C 88.84 367.05 87.73 352.82 91.35 339.22 Z" />
</g>
<g id="#235023ff">
<path fill="#235023" opacity="1.00" d=" M 370.65 43.60 C 373.87 41.41 377.90 42.44 381.41 43.15 C 388.78 44.96 396.12 47.43 402.50 51.62 C 395.37 68.09 390.80 85.70 389.66 103.64 C 389.25 110.27 387.67 119.24 394.79 122.97 C 398.43 121.12 402.15 119.41 405.96 117.94 C 400.58 122.85 396.18 128.89 393.54 135.70 C 397.69 134.96 401.84 134.24 406.01 133.63 C 401.54 137.32 397.06 141.01 392.91 145.05 C 394.79 148.01 396.63 151.00 398.36 154.06 C 388.62 153.36 379.06 148.54 369.26 151.51 C 359.77 154.25 349.89 150.87 340.36 153.16 C 333.30 154.75 326.13 155.88 318.89 156.14 C 322.67 152.09 326.76 148.35 330.71 144.48 C 326.58 142.17 321.87 141.43 317.21 141.09 C 320.74 137.74 324.14 134.26 327.24 130.51 C 325.76 127.82 324.46 125.01 323.80 122.00 C 325.22 124.64 326.66 128.09 330.03 128.58 C 333.00 128.25 336.11 125.95 336.44 122.82 C 337.20 104.36 341.71 86.06 349.03 69.11 C 353.70 58.87 361.05 49.61 370.65 43.60 M 337.34 131.42 C 331.80 133.76 334.75 141.63 338.54 144.44 C 348.75 154.36 364.11 152.00 376.53 148.59 C 381.26 146.91 384.49 141.52 382.25 136.67 C 379.46 134.53 375.58 134.88 372.72 136.70 C 366.68 140.54 359.17 140.28 352.36 139.37 C 346.33 138.49 344.06 129.31 337.34 131.42 Z" />
</g>
<g id="#2d692dff">
<path fill="#2d692d" opacity="1.00" d=" M 261.81 43.28 C 265.49 47.36 267.96 52.32 271.42 56.57 C 283.34 72.83 299.94 84.78 312.89 100.11 C 317.82 106.61 322.60 113.76 323.80 122.00 C 324.46 125.01 325.76 127.82 327.24 130.51 C 324.14 134.26 320.74 137.74 317.21 141.09 C 321.87 141.43 326.58 142.17 330.71 144.48 C 326.76 148.35 322.67 152.09 318.89 156.14 C 326.13 155.88 333.30 154.75 340.36 153.16 C 349.89 150.87 359.77 154.25 369.26 151.51 C 379.06 148.54 388.62 153.36 398.36 154.06 C 396.63 151.00 394.79 148.01 392.91 145.05 C 397.06 141.01 401.54 137.32 406.01 133.63 C 401.84 134.24 397.69 134.96 393.54 135.70 C 396.18 128.89 400.58 122.85 405.96 117.94 C 424.78 108.06 444.56 100.00 463.58 90.48 C 466.33 89.05 469.32 88.18 472.35 87.58 C 459.24 99.59 443.85 108.95 428.15 117.19 C 425.06 118.85 420.81 122.77 423.43 126.47 C 426.04 130.68 431.87 129.18 436.02 129.21 C 454.96 126.66 474.00 125.19 493.00 123.05 C 500.57 123.02 507.95 119.83 515.54 121.37 C 501.69 126.46 486.80 127.51 472.38 130.27 C 453.04 133.04 432.22 134.03 415.71 145.77 C 411.74 148.66 405.29 152.93 408.35 158.63 C 412.23 162.75 418.53 163.36 422.39 167.61 C 386.39 169.42 351.39 154.53 315.41 159.45 C 306.39 160.31 298.23 164.30 289.74 167.06 C 292.16 160.25 298.46 156.17 302.22 150.29 C 303.30 146.68 299.89 141.11 295.65 142.67 C 255.67 150.18 210.66 137.64 184.49 105.48 C 180.84 100.74 177.33 95.72 175.72 89.88 C 183.09 95.58 189.53 102.48 197.51 107.41 C 217.55 120.53 239.64 132.45 264.01 134.07 C 272.41 134.57 280.79 136.98 289.19 136.24 C 297.24 133.34 295.61 122.74 292.32 116.68 C 282.48 97.49 272.46 78.27 264.87 58.05 C 263.13 53.31 261.35 48.42 261.81 43.28 Z" />
</g>
<g id="#62e462ff">
<path fill="#62e462" opacity="1.00" d=" M 281.86 50.54 C 291.25 50.27 300.68 50.13 310.06 50.72 C 321.23 52.86 332.74 51.67 343.74 54.88 C 335.86 68.89 330.09 84.34 327.96 100.31 C 315.51 84.13 299.61 71.14 285.65 56.33 C 284.07 54.62 282.93 52.58 281.86 50.54 Z" />
<path fill="#62e462" opacity="1.00" d=" M 408.45 67.02 C 425.33 70.47 442.01 75.03 458.47 80.13 C 439.87 89.70 420.50 97.73 401.67 106.85 C 400.54 93.24 405.07 80.02 408.45 67.02 Z" />
<path fill="#62e462" opacity="1.00" d=" M 145.94 87.37 C 150.37 84.84 154.94 82.54 159.71 80.72 C 163.60 91.92 167.70 103.35 175.49 112.54 C 200.89 143.92 242.72 158.05 282.21 156.56 C 275.54 168.60 266.93 181.51 268.20 195.83 C 275.08 198.78 279.31 192.53 282.65 187.62 C 294.73 173.56 314.36 169.99 332.00 169.64 C 370.69 171.95 409.52 185.27 448.25 176.21 C 450.67 175.07 452.29 172.83 454.14 170.98 C 447.41 160.66 433.18 161.51 424.17 154.01 C 437.47 145.36 453.77 144.50 469.02 142.24 C 497.46 138.42 525.69 132.36 552.76 122.74 C 558.20 120.98 564.20 116.90 569.90 120.06 C 577.49 123.97 584.67 128.62 591.84 133.23 C 618.68 151.73 641.49 176.46 656.40 205.56 C 670.69 233.04 678.97 263.62 681.29 294.44 C 682.80 303.38 683.00 312.56 682.30 321.58 C 678.13 336.87 671.59 351.38 667.60 366.72 C 658.46 394.27 647.22 421.87 628.08 444.12 C 625.49 447.00 622.08 448.93 618.74 450.80 C 615.13 443.83 615.93 435.76 614.67 428.24 C 612.19 387.82 605.78 347.30 591.84 309.17 C 576.63 273.93 551.79 242.70 520.39 220.56 C 517.49 218.05 513.59 217.93 509.97 217.98 C 509.91 223.41 511.03 228.77 513.30 233.71 C 517.07 242.18 518.23 251.52 522.00 260.00 C 527.19 272.35 529.25 285.69 533.63 298.31 C 543.39 335.07 546.09 375.46 531.48 411.37 C 527.69 426.41 520.29 440.19 512.64 453.57 C 505.79 466.23 494.15 475.13 484.86 485.84 C 469.53 505.45 447.87 519.88 424.12 527.18 C 366.33 547.66 299.72 540.13 247.23 508.72 C 223.39 494.05 209.69 468.35 198.13 443.79 C 193.90 436.45 191.41 428.34 188.42 420.47 C 176.74 395.17 168.53 368.49 156.84 343.25 C 153.46 334.13 150.10 324.04 142.23 317.79 C 136.13 314.37 131.75 321.78 129.45 326.37 C 120.25 345.66 117.19 367.14 115.33 388.22 C 112.50 409.48 114.57 430.96 114.05 452.29 C 109.60 443.58 109.55 433.17 104.24 424.90 C 98.80 403.62 98.95 381.55 99.60 359.76 C 100.01 352.81 102.59 345.84 101.15 338.88 C 99.73 334.21 92.43 334.46 91.35 339.22 C 87.73 352.82 88.84 367.05 88.48 380.98 C 87.85 411.15 94.72 441.24 107.05 468.72 C 109.01 477.74 115.08 484.92 119.10 493.03 C 116.40 496.06 113.00 501.14 108.29 498.85 C 96.94 493.84 90.16 482.72 82.43 473.58 C 49.62 422.41 32.48 363.07 21.32 303.80 C 20.85 312.27 21.08 320.82 19.39 329.19 C 19.20 319.94 18.25 310.56 20.29 301.44 C 21.39 296.57 21.07 291.57 20.61 286.64 C 26.09 243.44 40.13 200.76 64.08 164.15 C 84.67 132.43 113.13 106.11 145.94 87.37 M 414.39 220.40 C 391.28 222.85 368.46 231.89 345.00 228.04 C 334.68 226.75 324.33 225.71 314.08 223.94 C 302.95 222.13 290.81 227.48 285.66 237.73 C 274.21 258.34 277.57 283.38 284.01 305.01 C 290.41 326.85 310.67 342.14 332.28 346.91 C 342.63 348.43 353.18 351.34 363.61 348.65 C 383.70 346.96 402.09 338.23 420.32 330.34 C 427.93 326.75 435.87 322.94 441.21 316.21 C 447.18 308.85 449.73 299.33 450.09 289.99 C 452.47 272.94 448.93 255.89 446.98 238.98 C 446.42 232.34 443.93 224.64 437.37 221.73 C 429.99 219.29 422.02 219.75 414.39 220.40 M 119.50 250.45 C 106.47 266.84 97.16 286.41 93.25 307.00 C 92.12 312.64 98.49 313.32 102.50 312.60 C 107.56 295.02 113.11 277.15 124.42 262.41 C 126.52 259.01 131.55 254.89 128.38 250.68 C 126.63 247.28 121.54 247.39 119.50 250.45 Z" />
<path fill="#62e462" opacity="1.00" d=" M 483.55 93.57 C 485.81 91.72 488.32 88.49 491.54 90.47 C 506.44 96.52 522.08 100.30 537.22 105.60 C 516.51 109.82 495.35 111.29 474.37 113.37 C 468.50 114.68 462.47 114.90 456.49 114.45 C 465.51 107.50 475.04 101.19 483.55 93.57 Z" />
</g>
<g id="#62e362ff">
<path fill="#62e362" opacity="1.00" d=" M 178.03 72.01 C 199.24 63.66 221.34 57.40 243.95 54.36 C 247.05 54.37 251.97 53.07 252.65 57.34 C 260.56 80.78 272.73 102.47 283.08 124.82 C 267.11 122.47 250.48 122.44 235.54 115.48 C 219.15 108.16 203.51 98.85 189.87 87.14 C 185.28 82.69 180.51 78.01 178.03 72.01 Z" />
</g>
<g id="#0c1d0cff">
<path fill="#0c1d0c" opacity="1.00" d=" M 337.34 131.42 C 344.06 129.31 346.33 138.49 352.36 139.37 C 359.17 140.28 366.68 140.54 372.72 136.70 C 375.58 134.88 379.46 134.53 382.25 136.67 C 384.49 141.52 381.26 146.91 376.53 148.59 C 364.11 152.00 348.75 154.36 338.54 144.44 C 334.75 141.63 331.80 133.76 337.34 131.42 Z" />
</g>
<g id="#5fdd5fff">
<path fill="#5fdd5f" opacity="1.00" d=" M 509.97 217.98 C 513.59 217.93 517.49 218.05 520.39 220.56 C 551.79 242.70 576.63 273.93 591.84 309.17 C 605.78 347.30 612.19 387.82 614.67 428.24 C 615.93 435.76 615.13 443.83 618.74 450.80 C 622.08 448.93 625.49 447.00 628.08 444.12 C 647.22 421.87 658.46 394.27 667.60 366.72 C 671.59 351.38 678.13 336.87 682.30 321.58 C 683.43 340.87 679.64 359.96 677.10 378.97 C 669.70 420.07 655.32 459.97 633.87 495.85 C 616.06 526.15 592.92 553.73 564.34 574.39 C 508.82 615.06 438.95 628.09 372.02 635.40 C 362.88 634.66 354.12 638.17 344.99 637.51 C 329.84 637.11 314.51 638.65 299.49 636.40 C 204.18 627.24 111.52 575.80 59.78 494.16 C 21.16 433.09 8.85 357.43 20.61 286.64 C 21.07 291.57 21.39 296.57 20.29 301.44 C 18.25 310.56 19.20 319.94 19.39 329.19 C 21.08 320.82 20.85 312.27 21.32 303.80 C 32.48 363.07 49.62 422.41 82.43 473.58 C 90.16 482.72 96.94 493.84 108.29 498.85 C 113.00 501.14 116.40 496.06 119.10 493.03 C 115.08 484.92 109.01 477.74 107.05 468.72 C 119.43 493.32 136.78 515.65 159.29 531.74 C 162.18 533.92 167.16 534.93 169.57 531.55 C 171.50 528.81 170.15 525.18 167.43 523.58 C 134.19 500.97 112.37 463.86 104.24 424.90 C 109.55 433.17 109.60 443.58 114.05 452.29 C 114.57 430.96 112.50 409.48 115.33 388.22 C 117.19 367.14 120.25 345.66 129.45 326.37 C 131.75 321.78 136.13 314.37 142.23 317.79 C 150.10 324.04 153.46 334.13 156.84 343.25 C 168.53 368.49 176.74 395.17 188.42 420.47 C 191.41 428.34 193.90 436.45 198.13 443.79 C 209.69 468.35 223.39 494.05 247.23 508.72 C 299.72 540.13 366.33 547.66 424.12 527.18 C 447.87 519.88 469.53 505.45 484.86 485.84 C 494.15 475.13 505.79 466.23 512.64 453.57 C 520.29 440.19 527.69 426.41 531.48 411.37 C 546.09 375.46 543.39 335.07 533.63 298.31 C 529.25 285.69 527.19 272.35 522.00 260.00 C 518.23 251.52 517.07 242.18 513.30 233.71 C 511.03 228.77 509.91 223.41 509.97 217.98 Z" />
</g>
<g id="#66ec66ff">
<path fill="#66ec66" opacity="1.00" d=" M 414.39 220.40 C 422.02 219.75 429.99 219.29 437.37 221.73 C 443.93 224.64 446.42 232.34 446.98 238.98 C 448.93 255.89 452.47 272.94 450.09 289.99 C 449.73 299.33 447.18 308.85 441.21 316.21 C 435.87 322.94 427.93 326.75 420.32 330.34 C 402.09 338.23 383.70 346.96 363.61 348.65 C 353.18 351.34 342.63 348.43 332.28 346.91 C 310.67 342.14 290.41 326.85 284.01 305.01 C 277.57 283.38 274.21 258.34 285.66 237.73 C 290.81 227.48 302.95 222.13 314.08 223.94 C 324.33 225.71 334.68 226.75 345.00 228.04 C 368.46 231.89 391.28 222.85 414.39 220.40 Z" />
</g>
<g id="#0c1b0cff">
<path fill="#0c1b0c" opacity="1.00" d=" M 119.50 250.45 C 121.54 247.39 126.63 247.28 128.38 250.68 C 131.55 254.89 126.52 259.01 124.42 262.41 C 113.11 277.15 107.56 295.02 102.50 312.60 C 98.49 313.32 92.12 312.64 93.25 307.00 C 97.16 286.41 106.47 266.84 119.50 250.45 Z" />
</g>
</svg>
