<?xml version="1.0" encoding="UTF-8" ?>
<!DOCTYPE svg PUBLIC "-//W3C//DTD SVG 1.1//EN" "http://www.w3.org/Graphics/SVG/1.1/DTD/svg11.dtd">
<svg width="700pt" height="656pt" viewBox="0 0 700 656" version="1.1" xmlns="http://www.w3.org/2000/svg">
<g id="#110e0cff">
<path fill="#110e0c" opacity="1.00" d=" M 247.31 13.09 C 247.99 6.18 258.72 5.91 261.61 11.37 C 267.10 19.71 270.73 29.10 275.91 37.64 C 300.93 35.61 325.86 39.95 350.68 42.70 C 356.50 34.33 366.68 26.52 377.42 29.57 C 388.55 32.92 400.64 34.76 410.20 41.82 C 414.13 44.39 414.05 49.39 414.54 53.53 C 431.71 59.06 449.40 62.90 466.60 68.39 C 480.38 73.67 491.60 56.04 505.34 60.71 C 510.56 66.92 504.85 74.67 499.90 79.02 C 516.92 85.30 533.90 91.69 550.86 98.13 C 561.87 103.39 573.72 94.83 585.06 97.93 C 590.65 101.23 588.48 109.83 584.06 113.35 C 595.80 120.69 607.36 128.37 618.65 136.36 C 629.86 147.48 641.92 158.01 650.80 171.20 C 656.55 179.91 662.85 188.35 666.99 198.01 C 672.27 210.33 678.79 222.14 683.05 234.88 C 685.89 244.62 687.93 254.58 689.46 264.61 C 693.52 285.44 696.55 306.77 693.97 327.99 C 694.18 348.49 689.93 368.67 687.90 389.01 C 686.45 404.51 679.53 418.72 675.53 433.61 C 669.89 454.12 659.41 472.76 651.33 492.33 C 647.52 502.37 640.06 510.25 633.55 518.56 C 622.65 532.31 611.40 545.77 600.56 559.57 C 593.72 569.05 584.83 576.84 574.78 582.78 C 558.34 592.62 542.71 603.83 525.66 612.64 C 507.80 621.34 488.30 625.64 469.37 631.31 C 440.41 640.69 409.92 643.41 379.99 648.13 C 361.51 651.54 342.66 650.70 323.98 650.97 C 315.12 649.35 306.13 650.05 297.19 649.57 C 278.07 645.86 258.62 643.60 239.87 638.11 C 214.29 631.42 190.13 620.33 166.67 608.32 C 159.77 605.12 152.74 602.03 146.68 597.34 C 129.58 584.09 112.39 570.94 95.40 557.56 C 75.64 535.11 53.23 514.15 40.31 486.68 C 30.41 464.73 17.53 443.67 13.22 419.63 C 9.57 399.86 6.67 379.94 4.02 360.01 C 4.17 346.01 4.46 331.98 3.97 317.98 C 5.77 295.52 8.76 273.14 13.00 251.01 C 17.14 236.15 21.86 221.45 26.92 206.88 C 36.47 180.60 51.45 156.59 68.73 134.73 C 77.43 122.58 89.27 113.29 99.89 102.92 C 116.53 88.38 135.70 77.28 154.89 66.49 C 154.44 59.22 153.52 51.84 154.63 44.60 C 157.41 42.08 162.04 42.21 165.27 43.75 C 169.64 47.66 170.66 53.84 172.89 59.02 C 180.93 56.61 188.64 53.25 196.62 50.67 C 212.73 46.25 229.20 43.29 245.66 40.58 C 245.99 31.41 245.87 22.17 247.31 13.09 M 279.41 91.64 C 284.00 102.69 291.92 112.35 294.55 124.17 C 296.03 129.68 292.61 137.31 286.03 136.43 C 268.29 134.18 249.92 133.83 233.21 126.73 C 211.74 117.23 191.00 105.11 174.70 87.97 C 177.86 98.60 185.07 107.48 193.00 115.01 C 210.13 130.52 232.12 140.53 254.96 143.81 C 268.81 145.06 282.90 145.22 296.62 142.69 C 300.44 141.89 301.47 146.63 303.11 149.04 C 298.63 155.10 292.41 159.92 289.64 167.13 C 298.51 164.40 307.04 160.40 316.39 159.42 C 352.36 154.77 387.33 169.99 423.34 167.48 C 418.73 163.91 412.84 162.35 408.44 158.55 C 405.36 154.13 410.42 150.10 413.59 147.58 C 429.81 134.80 451.12 133.22 470.81 130.60 C 486.16 127.91 501.90 126.54 516.67 121.31 C 510.89 119.98 505.10 121.38 499.39 122.31 C 480.05 124.30 460.70 126.16 441.38 128.30 C 434.75 129.15 425.24 131.96 421.93 123.97 C 426.15 116.37 435.11 114.34 441.92 109.86 C 453.15 102.56 464.81 95.53 474.37 86.04 C 452.97 94.83 432.21 105.23 411.27 115.09 C 404.60 116.30 398.41 124.22 391.52 120.47 C 388.41 114.11 390.15 106.80 390.40 100.04 C 391.07 83.02 396.84 66.80 402.66 50.98 C 394.43 47.22 386.01 43.31 376.92 42.33 C 372.14 41.63 367.88 44.46 364.51 47.50 C 356.82 54.54 350.72 63.36 347.15 73.18 C 340.69 89.13 336.98 106.16 336.12 123.33 C 334.75 130.51 324.98 128.46 323.97 122.07 C 321.67 109.28 312.86 98.97 303.88 90.12 C 287.40 74.93 270.88 59.16 260.23 39.15 C 262.07 57.98 272.12 74.55 279.41 91.64 M 281.50 50.52 C 294.67 69.20 315.04 81.76 327.58 101.08 C 330.68 84.98 335.63 69.05 343.94 54.83 C 333.98 51.43 323.36 53.09 313.21 50.72 C 302.67 50.05 292.06 50.31 281.50 50.52 M 177.75 71.96 C 183.12 83.10 193.46 90.66 203.22 97.76 C 221.30 109.62 240.97 120.79 262.95 122.70 C 269.79 122.86 276.48 124.34 283.28 124.91 C 281.19 118.42 277.58 112.63 274.41 106.64 C 265.73 89.30 258.01 71.48 250.96 53.43 C 225.79 55.92 201.23 62.68 177.75 71.96 M 401.55 107.03 C 420.82 98.22 440.01 89.25 459.22 80.30 C 442.68 74.60 425.49 71.11 408.67 66.39 C 404.68 79.54 400.46 93.11 401.55 107.03 M 70.15 155.17 C 42.86 192.52 27.72 237.45 20.72 282.85 C 20.38 290.30 17.88 297.49 18.24 305.01 C 8.76 384.56 32.00 468.95 85.84 529.14 C 137.38 588.10 211.77 625.30 289.06 635.44 C 308.85 638.78 329.01 637.33 349.00 637.47 C 357.44 637.93 365.56 634.74 374.02 635.38 C 420.84 630.08 468.12 622.28 511.83 603.86 C 540.81 592.09 567.55 574.80 590.03 553.04 C 637.75 504.93 666.99 440.43 678.15 374.05 C 680.51 355.61 683.80 337.14 682.32 318.46 C 683.59 307.25 681.69 296.10 680.53 284.99 C 675.25 240.37 657.74 196.29 626.76 163.23 C 610.67 145.58 591.13 131.23 570.12 119.94 C 564.89 116.87 559.18 120.32 554.15 122.06 C 523.94 133.06 492.22 139.20 460.40 143.20 C 448.15 144.76 435.48 146.84 424.69 153.20 C 424.63 153.65 424.52 154.54 424.46 154.99 C 432.27 159.58 441.20 161.76 449.29 165.74 C 452.57 167.11 453.93 171.65 451.18 174.21 C 446.77 178.25 440.42 176.93 435.01 177.90 C 424.14 180.12 412.85 179.88 401.95 178.05 C 379.20 176.38 356.80 171.24 334.04 169.35 C 318.05 169.39 301.02 171.98 288.04 182.06 C 282.57 185.79 279.76 192.00 275.23 196.65 C 272.95 196.26 270.68 195.84 268.41 195.42 C 267.98 192.18 267.34 188.76 268.70 185.64 C 272.60 175.53 276.26 165.10 282.96 156.42 C 247.92 157.47 211.10 147.37 185.26 122.75 C 172.34 111.62 164.58 96.08 159.62 80.04 C 124.30 97.36 93.05 123.12 70.15 155.17 M 455.35 114.47 C 467.45 115.92 479.18 112.20 491.22 112.31 C 506.62 109.50 522.45 109.52 537.67 105.66 C 521.53 100.16 505.07 95.47 489.02 89.68 C 477.57 97.44 467.35 107.29 455.35 114.47 Z" />
</g>
<g id="#417c00ff">
<path fill="#417c00" opacity="1.00" d=" M 279.41 91.64 C 272.12 74.55 262.07 57.98 260.23 39.15 C 270.88 59.16 287.40 74.93 303.88 90.12 C 312.86 98.97 321.67 109.28 323.97 122.07 C 324.83 125.07 325.91 128.00 327.05 130.91 C 323.98 134.27 320.94 137.64 317.84 140.97 C 322.14 141.74 326.43 142.55 330.70 143.45 C 327.29 147.88 323.63 152.13 319.38 155.77 C 326.39 155.80 333.33 154.71 340.12 153.02 C 349.72 150.64 359.65 154.19 369.24 151.50 C 379.10 148.71 388.71 153.14 398.44 154.16 C 396.64 151.27 394.84 148.40 392.98 145.55 C 396.76 140.95 401.20 136.97 406.10 133.59 C 401.89 134.28 397.69 134.95 393.48 135.59 C 396.81 126.90 403.10 119.57 411.27 115.09 C 432.21 105.23 452.97 94.83 474.37 86.04 C 464.81 95.53 453.15 102.56 441.92 109.86 C 435.11 114.34 426.15 116.37 421.93 123.97 C 425.24 131.96 434.75 129.15 441.38 128.30 C 460.70 126.16 480.05 124.30 499.39 122.31 C 505.10 121.38 510.89 119.98 516.67 121.31 C 501.90 126.54 486.16 127.91 470.81 130.60 C 451.12 133.22 429.81 134.80 413.59 147.58 C 410.42 150.10 405.36 154.13 408.44 158.55 C 412.84 162.35 418.73 163.91 423.34 167.48 C 387.33 169.99 352.36 154.77 316.39 159.42 C 307.04 160.40 298.51 164.40 289.64 167.13 C 292.41 159.92 298.63 155.10 303.11 149.04 C 301.47 146.63 300.44 141.89 296.62 142.69 C 282.90 145.22 268.81 145.06 254.96 143.81 C 232.12 140.53 210.13 130.52 193.00 115.01 C 185.07 107.48 177.86 98.60 174.70 87.97 C 191.00 105.11 211.74 117.23 233.21 126.73 C 249.92 133.83 268.29 134.18 286.03 136.43 C 292.61 137.31 296.03 129.68 294.55 124.17 C 291.92 112.35 284.00 102.69 279.41 91.64 Z" />
</g>
<g id="#355c00ff">
<path fill="#355c00" opacity="1.00" d=" M 364.51 47.50 C 367.88 44.46 372.14 41.63 376.92 42.33 C 386.01 43.31 394.43 47.22 402.66 50.98 C 396.84 66.80 391.07 83.02 390.40 100.04 C 390.15 106.80 388.41 114.11 391.52 120.47 C 398.41 124.22 404.60 116.30 411.27 115.09 C 403.10 119.57 396.81 126.90 393.48 135.59 C 397.69 134.95 401.89 134.28 406.10 133.59 C 401.20 136.97 396.76 140.95 392.98 145.55 C 394.84 148.40 396.64 151.27 398.44 154.16 C 388.71 153.14 379.10 148.71 369.24 151.50 C 359.65 154.19 349.72 150.64 340.12 153.02 C 333.33 154.71 326.39 155.80 319.38 155.77 C 323.63 152.13 327.29 147.88 330.70 143.45 C 326.43 142.55 322.14 141.74 317.84 140.97 C 320.94 137.64 323.98 134.27 327.05 130.91 C 325.91 128.00 324.83 125.07 323.97 122.07 C 324.98 128.46 334.75 130.51 336.12 123.33 C 336.98 106.16 340.69 89.13 347.15 73.18 C 350.72 63.36 356.82 54.54 364.51 47.50 M 337.40 131.52 C 333.60 133.03 333.64 138.30 335.87 141.14 C 341.76 149.68 353.11 152.86 363.00 151.11 C 369.37 149.93 377.36 150.43 381.53 144.51 C 383.46 141.85 383.60 136.32 379.69 135.45 C 374.52 134.24 370.60 139.05 365.66 139.53 C 361.00 139.98 356.23 140.12 351.63 139.24 C 346.06 138.06 343.85 129.29 337.40 131.52 Z" />
</g>
<g id="#fe250cff">
<path fill="#fe250c" opacity="1.00" d=" M 281.50 50.52 C 292.06 50.31 302.67 50.05 313.21 50.72 C 323.36 53.09 333.98 51.43 343.94 54.83 C 335.63 69.05 330.68 84.98 327.58 101.08 C 315.04 81.76 294.67 69.20 281.50 50.52 Z" />
</g>
<g id="#fe240aff">
<path fill="#fe240a" opacity="1.00" d=" M 177.75 71.96 C 201.23 62.68 225.79 55.92 250.96 53.43 C 258.01 71.48 265.73 89.30 274.41 106.64 C 277.58 112.63 281.19 118.42 283.28 124.91 C 276.48 124.34 269.79 122.86 262.95 122.70 C 240.97 120.79 221.30 109.62 203.22 97.76 C 193.46 90.66 183.12 83.10 177.75 71.96 Z" />
</g>
<g id="#ff250bff">
<path fill="#ff250b" opacity="1.00" d=" M 401.55 107.03 C 400.46 93.11 404.68 79.54 408.67 66.39 C 425.49 71.11 442.68 74.60 459.22 80.30 C 440.01 89.25 420.82 98.22 401.55 107.03 Z" />
</g>
<g id="#fe270cff">
<path fill="#fe270c" opacity="1.00" d=" M 70.15 155.17 C 93.05 123.12 124.30 97.36 159.62 80.04 C 164.58 96.08 172.34 111.62 185.26 122.75 C 211.10 147.37 247.92 157.47 282.96 156.42 C 276.26 165.10 272.60 175.53 268.70 185.64 C 267.34 188.76 267.98 192.18 268.41 195.42 C 270.68 195.84 272.95 196.26 275.23 196.65 C 279.76 192.00 282.57 185.79 288.04 182.06 C 301.02 171.98 318.05 169.39 334.04 169.35 C 356.80 171.24 379.20 176.38 401.95 178.05 C 412.85 179.88 424.14 180.12 435.01 177.90 C 440.42 176.93 446.77 178.25 451.18 174.21 C 453.93 171.65 452.57 167.11 449.29 165.74 C 441.20 161.76 432.27 159.58 424.46 154.99 C 424.52 154.54 424.63 153.65 424.69 153.20 C 435.48 146.84 448.15 144.76 460.40 143.20 C 492.22 139.20 523.94 133.06 554.15 122.06 C 559.18 120.32 564.89 116.87 570.12 119.94 C 591.13 131.23 610.67 145.58 626.76 163.23 C 657.74 196.29 675.25 240.37 680.53 284.99 C 681.69 296.10 683.59 307.25 682.32 318.46 C 671.91 352.97 661.46 387.76 644.81 419.89 C 637.62 431.33 630.83 444.39 618.29 450.78 C 615.44 441.00 616.06 430.74 614.61 420.75 C 610.49 373.92 603.67 325.55 579.83 284.20 C 564.78 260.66 546.38 238.80 523.74 222.22 C 519.82 218.89 514.70 217.94 509.73 217.50 C 510.05 221.51 510.22 225.59 511.34 229.49 C 521.73 260.01 532.79 290.54 538.36 322.41 C 542.02 338.96 541.48 356.08 540.56 372.89 C 536.04 403.59 525.19 433.40 508.56 459.62 C 501.78 469.33 491.99 476.35 484.48 485.44 C 472.47 501.45 455.84 513.69 437.56 521.64 C 389.41 542.63 333.53 542.83 284.17 525.78 C 263.77 517.79 242.83 508.70 227.72 492.27 C 203.89 462.86 191.41 426.65 176.84 392.23 C 171.10 376.28 164.95 360.46 157.98 345.00 C 154.22 335.46 151.19 324.81 143.05 317.95 C 137.97 314.32 132.39 319.63 130.07 324.03 C 119.84 343.16 117.65 365.19 115.15 386.38 C 113.33 398.84 114.12 411.47 113.05 424.00 C 112.10 433.66 115.56 443.48 112.55 452.96 C 97.68 416.81 97.04 376.66 101.80 338.41 C 98.88 335.97 93.79 334.03 91.69 338.51 C 87.15 356.29 88.95 374.83 88.64 392.99 C 90.66 426.70 100.12 460.39 118.81 488.75 C 117.57 493.46 115.05 500.91 108.65 498.42 C 96.54 493.39 89.33 481.37 81.46 471.50 C 54.79 428.79 38.27 380.55 27.42 331.59 C 24.26 315.51 19.78 299.39 20.72 282.85 C 27.72 237.45 42.86 192.52 70.15 155.17 M 143.41 149.50 C 135.07 150.25 127.05 153.44 120.19 158.20 C 109.33 165.39 99.42 174.28 92.06 185.10 C 73.97 209.24 63.84 239.74 66.05 270.01 C 66.84 276.66 67.86 284.16 72.84 289.08 C 78.90 292.03 84.99 286.32 86.37 280.61 C 93.13 255.67 104.29 229.25 127.30 215.25 C 139.28 206.32 156.70 207.64 166.93 195.92 C 174.08 186.73 176.06 173.81 173.26 162.66 C 168.70 151.06 154.62 147.85 143.41 149.50 M 414.39 220.36 C 395.21 222.83 376.51 229.04 357.00 228.80 C 342.54 228.45 328.23 226.13 313.94 224.10 C 302.92 222.34 290.74 227.53 285.64 237.72 C 274.61 258.11 277.36 282.90 283.78 304.30 C 288.48 320.24 300.39 333.56 315.32 340.69 C 335.45 350.82 359.30 351.31 380.76 345.43 C 397.45 340.74 413.58 334.11 428.88 325.97 C 438.48 320.73 446.47 311.74 448.69 300.83 C 452.44 279.68 449.90 258.09 446.79 237.03 C 445.99 230.97 443.19 224.42 437.22 221.88 C 429.94 219.20 421.97 219.51 414.39 220.36 M 120.21 250.17 C 106.82 265.85 98.31 285.32 93.58 305.26 C 92.55 308.00 94.08 310.47 95.30 312.82 C 99.98 313.59 104.31 311.64 104.50 306.41 C 108.38 289.20 115.90 272.75 126.88 258.92 C 129.06 256.55 128.63 253.20 128.84 250.25 C 126.17 248.66 122.45 246.90 120.21 250.17 M 71.33 316.41 C 66.98 316.30 64.57 320.53 63.02 323.98 C 57.70 335.72 59.60 349.30 63.99 361.01 C 66.50 367.99 70.60 375.04 77.44 378.49 C 80.77 380.30 86.75 379.69 87.00 375.00 C 88.39 359.23 88.68 342.77 83.29 327.65 C 81.37 322.44 77.28 316.88 71.33 316.41 Z" />
</g>
<g id="#fe250bff">
<path fill="#fe250b" opacity="1.00" d=" M 455.35 114.47 C 467.35 107.29 477.57 97.44 489.02 89.68 C 505.07 95.47 521.53 100.16 537.67 105.66 C 522.45 109.52 506.62 109.50 491.22 112.31 C 479.18 112.20 467.45 115.92 455.35 114.47 Z" />
</g>
<g id="#16120bff">
<path fill="#16120b" opacity="1.00" d=" M 337.40 131.52 C 343.85 129.29 346.06 138.06 351.63 139.24 C 356.23 140.12 361.00 139.98 365.66 139.53 C 370.60 139.05 374.52 134.24 379.69 135.45 C 383.60 136.32 383.46 141.85 381.53 144.51 C 377.36 150.43 369.37 149.93 363.00 151.11 C 353.11 152.86 341.76 149.68 335.87 141.14 C 333.64 138.30 333.60 133.03 337.40 131.52 Z" />
</g>
<g id="#fe5637ff">
<path fill="#fe5637" opacity="1.00" d=" M 143.41 149.50 C 154.62 147.85 168.70 151.06 173.26 162.66 C 176.06 173.81 174.08 186.73 166.93 195.92 C 156.70 207.64 139.28 206.32 127.30 215.25 C 104.29 229.25 93.13 255.67 86.37 280.61 C 84.99 286.32 78.90 292.03 72.84 289.08 C 67.86 284.16 66.84 276.66 66.05 270.01 C 63.84 239.74 73.97 209.24 92.06 185.10 C 99.42 174.28 109.33 165.39 120.19 158.20 C 127.05 153.44 135.07 150.25 143.41 149.50 Z" />
<path fill="#fe5637" opacity="1.00" d=" M 414.39 220.36 C 421.97 219.51 429.94 219.20 437.22 221.88 C 443.19 224.42 445.99 230.97 446.79 237.03 C 449.90 258.09 452.44 279.68 448.69 300.83 C 446.47 311.74 438.48 320.73 428.88 325.97 C 413.58 334.11 397.45 340.74 380.76 345.43 C 359.30 351.31 335.45 350.82 315.32 340.69 C 300.39 333.56 288.48 320.24 283.78 304.30 C 277.36 282.90 274.61 258.11 285.64 237.72 C 290.74 227.53 302.92 222.34 313.94 224.10 C 328.23 226.13 342.54 228.45 357.00 228.80 C 376.51 229.04 395.21 222.83 414.39 220.36 Z" />
</g>
<g id="#fb1101ff">
<path fill="#fb1101" opacity="1.00" d=" M 509.73 217.50 C 514.70 217.94 519.82 218.89 523.74 222.22 C 546.38 238.80 564.78 260.66 579.83 284.20 C 603.67 325.55 610.49 373.92 614.61 420.75 C 616.06 430.74 615.44 441.00 618.29 450.78 C 630.83 444.39 637.62 431.33 644.81 419.89 C 661.46 387.76 671.91 352.97 682.32 318.46 C 683.80 337.14 680.51 355.61 678.15 374.05 C 666.99 440.43 637.75 504.93 590.03 553.04 C 567.55 574.80 540.81 592.09 511.83 603.86 C 468.12 622.28 420.84 630.08 374.02 635.38 C 365.56 634.74 357.44 637.93 349.00 637.47 C 329.01 637.33 308.85 638.78 289.06 635.44 C 211.77 625.30 137.38 588.10 85.84 529.14 C 32.00 468.95 8.76 384.56 18.24 305.01 C 17.88 297.49 20.38 290.30 20.72 282.85 C 19.78 299.39 24.26 315.51 27.42 331.59 C 38.27 380.55 54.79 428.79 81.46 471.50 C 89.33 481.37 96.54 493.39 108.65 498.42 C 115.05 500.91 117.57 493.46 118.81 488.75 C 128.76 504.49 141.83 518.12 156.49 529.54 C 159.55 531.78 163.27 534.72 167.30 533.29 C 170.06 532.13 169.95 528.63 170.86 526.22 C 144.02 509.08 123.92 482.52 112.55 452.96 C 115.56 443.48 112.10 433.66 113.05 424.00 C 114.12 411.47 113.33 398.84 115.15 386.38 C 117.65 365.19 119.84 343.16 130.07 324.03 C 132.39 319.63 137.97 314.32 143.05 317.95 C 151.19 324.81 154.22 335.46 157.98 345.00 C 164.95 360.46 171.10 376.28 176.84 392.23 C 191.41 426.65 203.89 462.86 227.72 492.27 C 242.83 508.70 263.77 517.79 284.17 525.78 C 333.53 542.83 389.41 542.63 437.56 521.64 C 455.84 513.69 472.47 501.45 484.48 485.44 C 491.99 476.35 501.78 469.33 508.56 459.62 C 525.19 433.40 536.04 403.59 540.56 372.89 C 541.48 356.08 542.02 338.96 538.36 322.41 C 532.79 290.54 521.73 260.01 511.34 229.49 C 510.22 225.59 510.05 221.51 509.73 217.50 Z" />
</g>
<g id="#12120cff">
<path fill="#12120c" opacity="1.00" d=" M 120.21 250.17 C 122.45 246.90 126.17 248.66 128.84 250.25 C 128.63 253.20 129.06 256.55 126.88 258.92 C 115.90 272.75 108.38 289.20 104.50 306.41 C 104.31 311.64 99.98 313.59 95.30 312.82 C 94.08 310.47 92.55 308.00 93.58 305.26 C 98.31 285.32 106.82 265.85 120.21 250.17 Z" />
</g>
<g id="#fe5535ff">
<path fill="#fe5535" opacity="1.00" d=" M 71.33 316.41 C 77.28 316.88 81.37 322.44 83.29 327.65 C 88.68 342.77 88.39 359.23 87.00 375.00 C 86.75 379.69 80.77 380.30 77.44 378.49 C 70.60 375.04 66.50 367.99 63.99 361.01 C 59.60 349.30 57.70 335.72 63.02 323.98 C 64.57 320.53 66.98 316.30 71.33 316.41 Z" />
</g>
<g id="#14120bff">
<path fill="#14120b" opacity="1.00" d=" M 91.69 338.51 C 93.79 334.03 98.88 335.97 101.80 338.41 C 97.04 376.66 97.68 416.81 112.55 452.96 C 123.92 482.52 144.02 509.08 170.86 526.22 C 169.95 528.63 170.06 532.13 167.30 533.29 C 163.27 534.72 159.55 531.78 156.49 529.54 C 141.83 518.12 128.76 504.49 118.81 488.75 C 100.12 460.39 90.66 426.70 88.64 392.99 C 88.95 374.83 87.15 356.29 91.69 338.51 Z" />
</g>
</svg>
